# xmcd
#
# Track frame offsets:
#	182
#	16652
#	40562
#	57085
#	75360
#	93100
#	111025
#	131875
#	150612
#	167697
#	186475
#	208000
#	231847
#	252710
#	270527
#	286815
#	306540
#	316265
#
# Disc length: 4378 seconds
#
# Revision: 2
# Processed by: cddbd v1.5.1PL2 Copyright (c) Steve Scherf et al.
# Submitted via: dBpowerAMP V4.0
#
DISCID=ee111812
DTITLE=Various Artist - Pure Sax
DYEAR=1996
DGENRE=Blues
TTITLE0=Love Me For a Reason - State of the Heart
TTITLE1=Careless Whisper - State of the Heart
TTITLE2=Save The Best For Last - State Of The Heart
TTITLE3=Can You Feel The Love Tonight - State of the Heart
TTITLE4=The Most Beautiful Girl In The World - State of the Heart
TTITLE5=Holding Back The Years - State of the Heart
TTITLE6=You Are Not Alone - State of the Heart
TTITLE7=I Wonder Why - State of the Heart
TTITLE8=Crazy For You - State of the Heart
TTITLE9=After The Love Has Gone - State of the Heart
TTITLE10=How Am I supposed To Live Without You - State of the Heart
TTITLE11=True - State of the Heart
TTITLE12=Lily Was Here - State of the Heart
TTITLE13=End Of The Road - State of the Heart
TTITLE14=Goodnight Girl - State of the Heart
TTITLE15=I Want To Know What Love Is - State of the Heart
TTITLE16=I Believe - State of the Heart
TTITLE17=My Funny Valentine - State of the Heart
EXTD=
EXTT0=
EXTT1=
EXTT2=
EXTT3=
EXTT4=
EXTT5=
EXTT6=
EXTT7=
EXTT8=
EXTT9=
EXTT10=
EXTT11=
EXTT12=
EXTT13=
EXTT14=
EXTT15=
EXTT16=
EXTT17=
PLAYORDER=
